<svg xmlns="http://www.w3.org/2000/svg" xmlns:xlink="http://www.w3.org/1999/xlink" width="400" zoomAndPan="magnify" viewBox="0 0 300 187.499995" height="250" preserveAspectRatio="xMidYMid meet" version="1.0"><defs><g/><clipPath id="fa80eaa110"><path d="M 113.882812 22.238281 L 186.117188 22.238281 L 186.117188 94.476562 L 113.882812 94.476562 Z M 113.882812 22.238281 " clip-rule="nonzero"/></clipPath></defs><g clip-path="url(#fa80eaa110)"><path fill="#d99e82" d="M 186.117188 58.359375 C 186.117188 59.539062 186.058594 60.71875 185.945312 61.898438 C 185.828125 63.074219 185.65625 64.242188 185.425781 65.402344 C 185.191406 66.5625 184.90625 67.710938 184.5625 68.84375 C 184.21875 69.972656 183.820312 71.085938 183.367188 72.179688 C 182.917969 73.273438 182.410156 74.339844 181.851562 75.382812 C 181.296875 76.425781 180.6875 77.441406 180.03125 78.421875 C 179.375 79.40625 178.671875 80.355469 177.917969 81.269531 C 177.167969 82.183594 176.375 83.058594 175.539062 83.898438 C 174.703125 84.734375 173.828125 85.527344 172.914062 86.277344 C 172 87.027344 171.050781 87.730469 170.066406 88.386719 C 169.082031 89.046875 168.070312 89.652344 167.027344 90.210938 C 165.984375 90.769531 164.914062 91.273438 163.820312 91.726562 C 162.730469 92.179688 161.617188 92.578125 160.484375 92.921875 C 159.351562 93.265625 158.207031 93.550781 157.046875 93.78125 C 155.886719 94.011719 154.71875 94.1875 153.539062 94.300781 C 152.363281 94.417969 151.183594 94.476562 150 94.476562 C 148.816406 94.476562 147.636719 94.417969 146.460938 94.300781 C 145.28125 94.1875 144.113281 94.011719 142.953125 93.78125 C 141.792969 93.550781 140.648438 93.265625 139.515625 92.921875 C 138.382812 92.578125 137.269531 92.179688 136.179688 91.726562 C 135.085938 91.273438 134.015625 90.769531 132.972656 90.210938 C 131.929688 89.652344 130.917969 89.046875 129.933594 88.386719 C 128.949219 87.730469 128 87.027344 127.085938 86.277344 C 126.171875 85.527344 125.296875 84.734375 124.460938 83.898438 C 123.625 83.058594 122.832031 82.183594 122.082031 81.269531 C 121.328125 80.355469 120.625 79.40625 119.96875 78.421875 C 119.3125 77.441406 118.703125 76.425781 118.148438 75.382812 C 117.589844 74.339844 117.082031 73.273438 116.632812 72.179688 C 116.179688 71.085938 115.78125 69.972656 115.4375 68.84375 C 115.09375 67.710938 114.808594 66.5625 114.574219 65.402344 C 114.34375 64.242188 114.171875 63.074219 114.054688 61.898438 C 113.941406 60.71875 113.882812 59.539062 113.882812 58.359375 C 113.882812 57.175781 113.941406 55.996094 114.054688 54.816406 C 114.171875 53.640625 114.34375 52.472656 114.574219 51.3125 C 114.808594 50.152344 115.09375 49.003906 115.4375 47.871094 C 115.78125 46.742188 116.179688 45.628906 116.632812 44.535156 C 117.082031 43.441406 117.589844 42.375 118.148438 41.332031 C 118.703125 40.289062 119.3125 39.273438 119.96875 38.292969 C 120.625 37.308594 121.328125 36.359375 122.082031 35.445312 C 122.832031 34.53125 123.625 33.65625 124.460938 32.816406 C 125.296875 31.980469 126.171875 31.1875 127.085938 30.4375 C 128 29.6875 128.949219 28.984375 129.933594 28.328125 C 130.917969 27.667969 131.929688 27.0625 132.972656 26.503906 C 134.015625 25.945312 135.085938 25.441406 136.179688 24.988281 C 137.269531 24.535156 138.382812 24.136719 139.515625 23.792969 C 140.648438 23.453125 141.792969 23.164062 142.953125 22.933594 C 144.113281 22.703125 145.28125 22.527344 146.460938 22.414062 C 147.636719 22.296875 148.816406 22.238281 150 22.238281 C 151.183594 22.238281 152.363281 22.296875 153.539062 22.414062 C 154.71875 22.527344 155.886719 22.703125 157.046875 22.933594 C 158.207031 23.164062 159.351562 23.453125 160.484375 23.792969 C 161.617188 24.136719 162.730469 24.535156 163.820312 24.988281 C 164.914062 25.441406 165.984375 25.945312 167.027344 26.503906 C 168.070312 27.0625 169.082031 27.667969 170.066406 28.328125 C 171.050781 28.984375 172 29.6875 172.914062 30.4375 C 173.828125 31.1875 174.703125 31.980469 175.539062 32.816406 C 176.375 33.65625 177.167969 34.53125 177.917969 35.445312 C 178.671875 36.359375 179.375 37.308594 180.03125 38.292969 C 180.6875 39.273438 181.296875 40.289062 181.851562 41.332031 C 182.410156 42.375 182.917969 43.441406 183.367188 44.535156 C 183.820312 45.628906 184.21875 46.742188 184.5625 47.871094 C 184.90625 49.003906 185.191406 50.152344 185.425781 51.3125 C 185.65625 52.472656 185.828125 53.640625 185.945312 54.816406 C 186.058594 55.996094 186.117188 57.175781 186.117188 58.359375 Z M 186.117188 58.359375 " fill-opacity="1" fill-rule="nonzero"/></g><path fill="#8a4b38" d="M 159.855469 56.121094 C 162.355469 55.300781 165.046875 56.675781 165.859375 59.179688 C 166.675781 61.683594 165.308594 64.378906 162.796875 65.195312 C 160.289062 66.011719 154.574219 65.621094 153.757812 63.117188 C 152.945312 60.609375 157.34375 56.933594 159.855469 56.121094 Z M 178.0625 54.691406 C 177.253906 55.652344 175.820312 55.78125 174.859375 54.972656 C 173.898438 54.160156 173.773438 52.730469 174.582031 51.765625 C 175.390625 50.808594 177.796875 49.519531 178.757812 50.328125 C 179.722656 51.136719 178.871094 53.730469 178.0625 54.691406 Z M 131.320312 39.820312 C 130.511719 40.78125 129.078125 40.910156 128.117188 40.097656 C 127.160156 39.289062 127.03125 37.859375 127.839844 36.894531 C 128.648438 35.9375 131.058594 34.648438 132.015625 35.457031 C 132.980469 36.265625 132.128906 38.859375 131.320312 39.820312 Z M 157.011719 35.796875 C 155.425781 34.78125 154.953125 32.667969 155.972656 31.078125 C 156.988281 29.488281 159.101562 29.023438 160.691406 30.039062 C 162.285156 31.054688 164.671875 34.394531 163.65625 35.984375 C 162.636719 37.578125 158.605469 36.816406 157.011719 35.796875 Z M 140.171875 49.003906 C 139.078125 46.742188 140.039062 44.011719 142.308594 42.921875 C 144.582031 41.832031 147.304688 42.789062 148.394531 45.0625 C 149.484375 47.335938 149.84375 52.800781 147.570312 53.886719 C 145.296875 54.980469 141.257812 51.28125 140.171875 49.003906 Z M 142.347656 78.960938 C 143.628906 77.101562 146.171875 76.632812 148.027344 77.914062 C 149.882812 79.199219 150.351562 81.742188 149.066406 83.597656 C 147.785156 85.453125 143.695312 88.160156 141.84375 86.878906 C 139.984375 85.59375 141.066406 80.816406 142.347656 78.960938 Z M 163.621094 78.097656 C 162.164062 77.171875 161.734375 75.234375 162.667969 73.777344 C 163.597656 72.320312 165.535156 71.894531 166.992188 72.824219 C 168.449219 73.757812 170.636719 76.816406 169.703125 78.269531 C 168.773438 79.730469 165.082031 79.03125 163.621094 78.097656 Z M 123.519531 59.25 C 125.136719 57.4375 127.917969 57.28125 129.730469 58.902344 C 131.539062 60.527344 131.691406 63.304688 130.070312 65.113281 C 128.449219 66.925781 123.714844 69.265625 121.90625 67.640625 C 120.09375 66.019531 121.894531 61.058594 123.519531 59.25 Z M 123.519531 59.25 " fill-opacity="1" fill-rule="nonzero"/><g fill="#cb6a52" fill-opacity="1"><g transform="translate(86.023775, 160.534756)"><g><path d="M 5.203125 0.1875 C 4.523438 0.1875 3.898438 0.0664062 3.328125 -0.171875 C 2.753906 -0.421875 2.253906 -0.757812 1.828125 -1.1875 C 1.410156 -1.613281 1.082031 -2.117188 0.84375 -2.703125 C 0.601562 -3.285156 0.484375 -3.921875 0.484375 -4.609375 C 0.484375 -5.304688 0.601562 -5.953125 0.84375 -6.546875 C 1.09375 -7.148438 1.4375 -7.671875 1.875 -8.109375 C 2.3125 -8.546875 2.820312 -8.890625 3.40625 -9.140625 C 4 -9.390625 4.640625 -9.515625 5.328125 -9.515625 C 6.054688 -9.515625 6.734375 -9.367188 7.359375 -9.078125 C 7.984375 -8.796875 8.519531 -8.40625 8.96875 -7.90625 L 7.546875 -6.515625 C 7.253906 -6.835938 6.921875 -7.085938 6.546875 -7.265625 C 6.179688 -7.441406 5.789062 -7.53125 5.375 -7.53125 C 4.96875 -7.53125 4.597656 -7.457031 4.265625 -7.3125 C 3.929688 -7.175781 3.640625 -6.976562 3.390625 -6.71875 C 3.148438 -6.457031 2.960938 -6.148438 2.828125 -5.796875 C 2.691406 -5.441406 2.625 -5.054688 2.625 -4.640625 C 2.625 -4.222656 2.691406 -3.835938 2.828125 -3.484375 C 2.960938 -3.140625 3.15625 -2.84375 3.40625 -2.59375 C 3.65625 -2.34375 3.953125 -2.144531 4.296875 -2 C 4.640625 -1.863281 5.019531 -1.796875 5.4375 -1.796875 C 5.789062 -1.796875 6.117188 -1.84375 6.421875 -1.9375 C 6.722656 -2.03125 7.003906 -2.179688 7.265625 -2.390625 L 7.265625 -3.65625 L 5.484375 -3.65625 L 5.484375 -5.328125 L 9.296875 -5.328125 L 9.296875 -1.578125 C 8.796875 -1.015625 8.191406 -0.578125 7.484375 -0.265625 C 6.773438 0.0351562 6.015625 0.1875 5.203125 0.1875 Z M 5.203125 0.1875 "/></g></g></g><g fill="#cb6a52" fill-opacity="1"><g transform="translate(97.400884, 160.534756)"><g><path d="M 3.8125 -9.484375 L 5.109375 -9.484375 L 8.78125 0 L 6.640625 0 L 6.0625 -1.578125 L 2.84375 -1.578125 L 2.296875 0 L 0.140625 0 Z M 5.4375 -3.328125 L 4.46875 -6.0625 L 3.46875 -3.328125 Z M 5.4375 -3.328125 "/></g></g></g><g fill="#cb6a52" fill-opacity="1"><g transform="translate(107.707083, 160.534756)"><g><path d="M 1.046875 -9.3125 L 3.078125 -9.3125 L 3.078125 -1.90625 L 6.296875 -1.90625 L 6.296875 0 L 1.046875 0 Z M 1.046875 -9.3125 "/></g></g></g><g fill="#cb6a52" fill-opacity="1"><g transform="translate(115.815826, 160.534756)"><g><path d="M 1.046875 -9.3125 L 3.078125 -9.3125 L 3.078125 -1.90625 L 6.296875 -1.90625 L 6.296875 0 L 1.046875 0 Z M 1.046875 -9.3125 "/></g></g></g><g fill="#cb6a52" fill-opacity="1"><g transform="translate(123.924567, 160.534756)"><g><path d="M 1.046875 -9.3125 L 6.375 -9.3125 L 6.375 -7.40625 L 3.078125 -7.40625 L 3.078125 -5.703125 L 5.484375 -5.703125 L 5.484375 -3.796875 L 3.078125 -3.796875 L 3.078125 -1.90625 L 6.4375 -1.90625 L 6.4375 0 L 1.046875 0 Z M 1.046875 -9.3125 "/></g></g></g><g fill="#cb6a52" fill-opacity="1"><g transform="translate(132.450555, 160.534756)"><g><path d="M 2.984375 -7.40625 L 0.28125 -7.40625 L 0.28125 -9.3125 L 7.734375 -9.3125 L 7.734375 -7.40625 L 5.015625 -7.40625 L 5.015625 0 L 2.984375 0 Z M 2.984375 -7.40625 "/></g></g></g><g fill="#cb6a52" fill-opacity="1"><g transform="translate(141.852738, 160.534756)"><g><path d="M 3.8125 -9.484375 L 5.109375 -9.484375 L 8.78125 0 L 6.640625 0 L 6.0625 -1.578125 L 2.84375 -1.578125 L 2.296875 0 L 0.140625 0 Z M 5.4375 -3.328125 L 4.46875 -6.0625 L 3.46875 -3.328125 Z M 5.4375 -3.328125 "/></g></g></g><g fill="#cb6a52" fill-opacity="1"><g transform="translate(152.158939, 160.534756)"><g><path d="M 3.546875 0.25 C 2.828125 0.25 2.175781 0.0859375 1.59375 -0.234375 C 1.019531 -0.554688 0.554688 -1.023438 0.203125 -1.640625 L 1.625 -2.828125 C 2.101562 -1.960938 2.738281 -1.53125 3.53125 -1.53125 C 3.882812 -1.53125 4.171875 -1.613281 4.390625 -1.78125 C 4.609375 -1.957031 4.71875 -2.1875 4.71875 -2.46875 C 4.71875 -2.71875 4.609375 -2.9375 4.390625 -3.125 C 4.179688 -3.320312 3.796875 -3.539062 3.234375 -3.78125 C 2.378906 -4.164062 1.753906 -4.585938 1.359375 -5.046875 C 0.960938 -5.515625 0.765625 -6.078125 0.765625 -6.734375 C 0.765625 -7.140625 0.835938 -7.515625 0.984375 -7.859375 C 1.128906 -8.203125 1.335938 -8.492188 1.609375 -8.734375 C 1.878906 -8.984375 2.195312 -9.175781 2.5625 -9.3125 C 2.9375 -9.445312 3.347656 -9.515625 3.796875 -9.515625 C 4.972656 -9.515625 5.96875 -9.007812 6.78125 -8 L 5.4375 -6.765625 C 5.175781 -7.109375 4.914062 -7.363281 4.65625 -7.53125 C 4.394531 -7.695312 4.109375 -7.78125 3.796875 -7.78125 C 3.492188 -7.78125 3.25 -7.703125 3.0625 -7.546875 C 2.882812 -7.390625 2.796875 -7.179688 2.796875 -6.921875 C 2.796875 -6.640625 2.914062 -6.40625 3.15625 -6.21875 C 3.394531 -6.03125 3.753906 -5.832031 4.234375 -5.625 C 5.117188 -5.226562 5.757812 -4.789062 6.15625 -4.3125 C 6.550781 -3.84375 6.75 -3.28125 6.75 -2.625 C 6.75 -2.195312 6.664062 -1.804688 6.5 -1.453125 C 6.34375 -1.109375 6.125 -0.804688 5.84375 -0.546875 C 5.570312 -0.296875 5.238281 -0.101562 4.84375 0.03125 C 4.445312 0.175781 4.015625 0.25 3.546875 0.25 Z M 3.546875 0.25 "/></g></g></g><g fill="#cb6a52" fill-opacity="1"><g transform="translate(160.824007, 160.534756)"><g/></g></g><g fill="#cb6a52" fill-opacity="1"><g transform="translate(165.274977, 160.534756)"><g><path d="M 2.78125 -3.34375 L -0.0625 -9.3125 L 2.140625 -9.3125 L 3.859375 -5.546875 L 5.609375 -9.3125 L 7.703125 -9.3125 L 4.8125 -3.359375 L 4.8125 0 L 2.78125 0 Z M 2.78125 -3.34375 "/></g></g></g><g fill="#cb6a52" fill-opacity="1"><g transform="translate(174.301652, 160.534756)"><g/></g></g><g fill="#cb6a52" fill-opacity="1"><g transform="translate(178.752622, 160.534756)"><g><path d="M 1.046875 -9.484375 L 2.078125 -9.484375 L 5.921875 -4.4375 L 9.71875 -9.484375 L 10.765625 -9.484375 L 10.765625 0 L 8.734375 0 L 8.734375 -5.1875 L 6.296875 -1.96875 L 5.5 -1.96875 L 3.078125 -5.171875 L 3.078125 0 L 1.046875 0 Z M 1.046875 -9.484375 "/></g></g></g><g fill="#cb6a52" fill-opacity="1"><g transform="translate(191.951658, 160.534756)"><g><path d="M 3.8125 -9.484375 L 5.109375 -9.484375 L 8.78125 0 L 6.640625 0 L 6.0625 -1.578125 L 2.84375 -1.578125 L 2.296875 0 L 0.140625 0 Z M 5.4375 -3.328125 L 4.46875 -6.0625 L 3.46875 -3.328125 Z M 3.6875 -10.546875 L 5.03125 -13.046875 L 6.390625 -12.234375 L 4.75 -9.921875 Z M 3.6875 -10.546875 "/></g></g></g><g fill="#cb6a52" fill-opacity="1"><g transform="translate(202.25786, 160.534756)"><g><path d="M 3.546875 0.25 C 2.828125 0.25 2.175781 0.0859375 1.59375 -0.234375 C 1.019531 -0.554688 0.554688 -1.023438 0.203125 -1.640625 L 1.625 -2.828125 C 2.101562 -1.960938 2.738281 -1.53125 3.53125 -1.53125 C 3.882812 -1.53125 4.171875 -1.613281 4.390625 -1.78125 C 4.609375 -1.957031 4.71875 -2.1875 4.71875 -2.46875 C 4.71875 -2.71875 4.609375 -2.9375 4.390625 -3.125 C 4.179688 -3.320312 3.796875 -3.539062 3.234375 -3.78125 C 2.378906 -4.164062 1.753906 -4.585938 1.359375 -5.046875 C 0.960938 -5.515625 0.765625 -6.078125 0.765625 -6.734375 C 0.765625 -7.140625 0.835938 -7.515625 0.984375 -7.859375 C 1.128906 -8.203125 1.335938 -8.492188 1.609375 -8.734375 C 1.878906 -8.984375 2.195312 -9.175781 2.5625 -9.3125 C 2.9375 -9.445312 3.347656 -9.515625 3.796875 -9.515625 C 4.972656 -9.515625 5.96875 -9.007812 6.78125 -8 L 5.4375 -6.765625 C 5.175781 -7.109375 4.914062 -7.363281 4.65625 -7.53125 C 4.394531 -7.695312 4.109375 -7.78125 3.796875 -7.78125 C 3.492188 -7.78125 3.25 -7.703125 3.0625 -7.546875 C 2.882812 -7.390625 2.796875 -7.179688 2.796875 -6.921875 C 2.796875 -6.640625 2.914062 -6.40625 3.15625 -6.21875 C 3.394531 -6.03125 3.753906 -5.832031 4.234375 -5.625 C 5.117188 -5.226562 5.757812 -4.789062 6.15625 -4.3125 C 6.550781 -3.84375 6.75 -3.28125 6.75 -2.625 C 6.75 -2.195312 6.664062 -1.804688 6.5 -1.453125 C 6.34375 -1.109375 6.125 -0.804688 5.84375 -0.546875 C 5.570312 -0.296875 5.238281 -0.101562 4.84375 0.03125 C 4.445312 0.175781 4.015625 0.25 3.546875 0.25 Z M 3.546875 0.25 "/></g></g></g><g fill="#cb6a52" fill-opacity="1"><g transform="translate(210.919719, 160.534756)"><g/></g></g><g fill="#8a4b38" fill-opacity="1"><g transform="translate(31.799442, 137.054976)"><g><path d="M 2.453125 0 L 2.453125 -20.984375 L 9.953125 -20.984375 C 12.304688 -20.984375 14.367188 -20.546875 16.140625 -19.671875 C 17.910156 -18.804688 19.28125 -17.578125 20.25 -15.984375 C 21.21875 -14.398438 21.703125 -12.566406 21.703125 -10.484375 C 21.703125 -8.410156 21.21875 -6.578125 20.25 -4.984375 C 19.28125 -3.398438 17.910156 -2.171875 16.140625 -1.296875 C 14.367188 -0.429688 12.304688 0 9.953125 0 Z M 9.828125 -4.578125 C 11.847656 -4.578125 13.4375 -5.113281 14.59375 -6.1875 C 15.75 -7.257812 16.328125 -8.691406 16.328125 -10.484375 C 16.328125 -12.285156 15.75 -13.71875 14.59375 -14.78125 C 13.4375 -15.851562 11.847656 -16.390625 9.828125 -16.390625 L 7.703125 -16.390625 L 7.703125 -4.578125 Z M 9.828125 -4.578125 "/></g></g></g><g fill="#8a4b38" fill-opacity="1"><g transform="translate(56.337389, 137.054976)"><g><path d="M 12.46875 0.390625 C 10.445312 0.390625 8.570312 -0.0625 6.84375 -0.96875 C 5.113281 -1.882812 3.738281 -3.171875 2.71875 -4.828125 C 1.707031 -6.484375 1.203125 -8.367188 1.203125 -10.484375 C 1.203125 -12.609375 1.707031 -14.5 2.71875 -16.15625 C 3.738281 -17.8125 5.113281 -19.09375 6.84375 -20 C 8.570312 -20.914062 10.445312 -21.375 12.46875 -21.375 C 14.488281 -21.375 16.359375 -20.914062 18.078125 -20 C 19.804688 -19.09375 21.179688 -17.8125 22.203125 -16.15625 C 23.222656 -14.5 23.734375 -12.609375 23.734375 -10.484375 C 23.734375 -8.367188 23.222656 -6.484375 22.203125 -4.828125 C 21.179688 -3.171875 19.804688 -1.882812 18.078125 -0.96875 C 16.359375 -0.0625 14.488281 0.390625 12.46875 0.390625 Z M 12.46875 -4.40625 C 13.582031 -4.40625 14.59375 -4.664062 15.5 -5.1875 C 16.414062 -5.707031 17.128906 -6.425781 17.640625 -7.34375 C 18.148438 -8.257812 18.40625 -9.304688 18.40625 -10.484375 C 18.40625 -11.660156 18.148438 -12.707031 17.640625 -13.625 C 17.128906 -14.550781 16.414062 -15.273438 15.5 -15.796875 C 14.59375 -16.316406 13.582031 -16.578125 12.46875 -16.578125 C 11.34375 -16.578125 10.328125 -16.316406 9.421875 -15.796875 C 8.515625 -15.273438 7.804688 -14.550781 7.296875 -13.625 C 6.785156 -12.707031 6.53125 -11.660156 6.53125 -10.484375 C 6.53125 -9.304688 6.785156 -8.257812 7.296875 -7.34375 C 7.804688 -6.425781 8.515625 -5.707031 9.421875 -5.1875 C 10.328125 -4.664062 11.34375 -4.40625 12.46875 -4.40625 Z M 12.46875 -4.40625 "/></g></g></g><g fill="#8a4b38" fill-opacity="1"><g transform="translate(82.912645, 137.054976)"><g><path d="M 17.203125 -8.328125 L 17.203125 -20.984375 L 22.234375 -20.984375 L 22.234375 0 L 18.578125 0 L 7.484375 -12.59375 L 7.484375 0 L 2.453125 0 L 2.453125 -20.984375 L 6.078125 -20.984375 Z M 17.203125 -8.328125 "/></g></g></g><g fill="#8a4b38" fill-opacity="1"><g transform="translate(109.218258, 137.054976)"><g/></g></g><g fill="#8a4b38" fill-opacity="1"><g transform="translate(119.974344, 137.054976)"><g><path d="M 11.953125 -11.6875 L 23.4375 -11.6875 L 23.4375 -10.421875 C 23.4375 -8.390625 22.976562 -6.546875 22.0625 -4.890625 C 21.15625 -3.242188 19.867188 -1.953125 18.203125 -1.015625 C 16.535156 -0.078125 14.59375 0.390625 12.375 0.390625 C 10.375 0.390625 8.519531 -0.0546875 6.8125 -0.953125 C 5.101562 -1.859375 3.738281 -3.140625 2.71875 -4.796875 C 1.707031 -6.453125 1.203125 -8.347656 1.203125 -10.484375 C 1.203125 -12.628906 1.707031 -14.53125 2.71875 -16.1875 C 3.738281 -17.84375 5.101562 -19.117188 6.8125 -20.015625 C 8.519531 -20.921875 10.375 -21.375 12.375 -21.375 C 14.96875 -21.375 17.242188 -20.703125 19.203125 -19.359375 C 21.160156 -18.023438 22.507812 -16.164062 23.25 -13.78125 L 17.6875 -13.78125 C 16.46875 -15.71875 14.71875 -16.6875 12.4375 -16.6875 C 11.300781 -16.6875 10.28125 -16.410156 9.375 -15.859375 C 8.476562 -15.316406 7.78125 -14.570312 7.28125 -13.625 C 6.78125 -12.675781 6.53125 -11.609375 6.53125 -10.421875 C 6.53125 -9.222656 6.78125 -8.15625 7.28125 -7.21875 C 7.78125 -6.28125 8.484375 -5.539062 9.390625 -5 C 10.304688 -4.46875 11.351562 -4.203125 12.53125 -4.203125 C 13.863281 -4.203125 15.003906 -4.5 15.953125 -5.09375 C 16.898438 -5.695312 17.585938 -6.515625 18.015625 -7.546875 L 11.953125 -7.546875 Z M 11.953125 -11.6875 "/></g></g></g><g fill="#8a4b38" fill-opacity="1"><g transform="translate(146.220038, 137.054976)"><g><path d="M 21.671875 0 L 16.25 0 L 14.796875 -4.109375 L 6.953125 -4.109375 L 5.546875 0 L 0.203125 0 L 8.1875 -20.984375 L 13.671875 -20.984375 Z M 8.328125 -8.484375 L 13.484375 -8.484375 L 10.90625 -15.765625 Z M 8.328125 -8.484375 "/></g></g></g><g fill="#8a4b38" fill-opacity="1"><g transform="translate(169.709366, 137.054976)"><g><path d="M 15.5 0 L 2.453125 0 L 2.453125 -20.984375 L 7.703125 -20.984375 L 7.703125 -4.734375 L 15.5 -4.734375 Z M 15.5 0 "/></g></g></g><g fill="#8a4b38" fill-opacity="1"><g transform="translate(187.566103, 137.054976)"><g><path d="M 15.5 0 L 2.453125 0 L 2.453125 -20.984375 L 7.703125 -20.984375 L 7.703125 -4.734375 L 15.5 -4.734375 Z M 15.5 0 "/></g></g></g><g fill="#8a4b38" fill-opacity="1"><g transform="translate(205.422839, 137.054976)"><g><path d="M 7.703125 -8.546875 L 7.703125 -4.46875 L 16.296875 -4.46875 L 16.296875 0 L 2.453125 0 L 2.453125 -20.984375 L 16 -20.984375 L 16 -16.515625 L 7.703125 -16.515625 L 7.703125 -12.890625 L 15.703125 -12.890625 L 15.703125 -8.546875 Z M 7.703125 -8.546875 "/></g></g></g><g fill="#8a4b38" fill-opacity="1"><g transform="translate(224.927408, 137.054976)"><g><path d="M 11 0 L 5.75 0 L 5.75 -16.25 L 0.59375 -16.25 L 0.59375 -20.984375 L 16.09375 -20.984375 L 16.09375 -16.25 L 11 -16.25 Z M 11 0 "/></g></g></g><g fill="#8a4b38" fill-opacity="1"><g transform="translate(243.263496, 137.054976)"><g><path d="M 12.46875 0.390625 C 10.445312 0.390625 8.570312 -0.0625 6.84375 -0.96875 C 5.113281 -1.882812 3.738281 -3.171875 2.71875 -4.828125 C 1.707031 -6.484375 1.203125 -8.367188 1.203125 -10.484375 C 1.203125 -12.609375 1.707031 -14.5 2.71875 -16.15625 C 3.738281 -17.8125 5.113281 -19.09375 6.84375 -20 C 8.570312 -20.914062 10.445312 -21.375 12.46875 -21.375 C 14.488281 -21.375 16.359375 -20.914062 18.078125 -20 C 19.804688 -19.09375 21.179688 -17.8125 22.203125 -16.15625 C 23.222656 -14.5 23.734375 -12.609375 23.734375 -10.484375 C 23.734375 -8.367188 23.222656 -6.484375 22.203125 -4.828125 C 21.179688 -3.171875 19.804688 -1.882812 18.078125 -0.96875 C 16.359375 -0.0625 14.488281 0.390625 12.46875 0.390625 Z M 12.46875 -4.40625 C 13.582031 -4.40625 14.59375 -4.664062 15.5 -5.1875 C 16.414062 -5.707031 17.128906 -6.425781 17.640625 -7.34375 C 18.148438 -8.257812 18.40625 -9.304688 18.40625 -10.484375 C 18.40625 -11.660156 18.148438 -12.707031 17.640625 -13.625 C 17.128906 -14.550781 16.414062 -15.273438 15.5 -15.796875 C 14.59375 -16.316406 13.582031 -16.578125 12.46875 -16.578125 C 11.34375 -16.578125 10.328125 -16.316406 9.421875 -15.796875 C 8.515625 -15.273438 7.804688 -14.550781 7.296875 -13.625 C 6.785156 -12.707031 6.53125 -11.660156 6.53125 -10.484375 C 6.53125 -9.304688 6.785156 -8.257812 7.296875 -7.34375 C 7.804688 -6.425781 8.515625 -5.707031 9.421875 -5.1875 C 10.328125 -4.664062 11.34375 -4.40625 12.46875 -4.40625 Z M 12.46875 -4.40625 "/></g></g></g></svg>