<svg xmlns="http://www.w3.org/2000/svg" xmlns:xlink="http://www.w3.org/1999/xlink" width="500" zoomAndPan="magnify" viewBox="0 0 375 374.999991" height="500" preserveAspectRatio="xMidYMid meet" version="1.0"><defs><clipPath id="4d6aad6340"><path d="M 47.011719 47.011719 L 328.261719 47.011719 L 328.261719 328.261719 L 47.011719 328.261719 Z M 47.011719 47.011719 " clip-rule="nonzero"/></clipPath></defs><g clip-path="url(#4d6aad6340)"><path fill="#d99e82" d="M 328.261719 187.636719 C 328.261719 189.9375 328.207031 192.238281 328.09375 194.539062 C 327.980469 196.835938 327.8125 199.132812 327.585938 201.421875 C 327.359375 203.710938 327.078125 205.996094 326.742188 208.273438 C 326.402344 210.546875 326.011719 212.816406 325.5625 215.074219 C 325.113281 217.328125 324.609375 219.574219 324.046875 221.808594 C 323.488281 224.039062 322.875 226.257812 322.207031 228.460938 C 321.539062 230.660156 320.816406 232.847656 320.042969 235.011719 C 319.265625 237.179688 318.4375 239.328125 317.558594 241.453125 C 316.679688 243.578125 315.746094 245.683594 314.761719 247.761719 C 313.777344 249.84375 312.742188 251.898438 311.65625 253.929688 C 310.574219 255.957031 309.4375 257.960938 308.257812 259.933594 C 307.074219 261.90625 305.84375 263.851562 304.5625 265.765625 C 303.285156 267.679688 301.960938 269.558594 300.589844 271.40625 C 299.21875 273.257812 297.800781 275.070312 296.34375 276.847656 C 294.882812 278.628906 293.378906 280.371094 291.835938 282.074219 C 290.289062 283.78125 288.703125 285.449219 287.074219 287.074219 C 285.449219 288.703125 283.78125 290.289062 282.074219 291.835938 C 280.371094 293.378906 278.628906 294.882812 276.847656 296.34375 C 275.070312 297.800781 273.257812 299.21875 271.40625 300.589844 C 269.558594 301.960938 267.679688 303.285156 265.765625 304.5625 C 263.851562 305.84375 261.90625 307.074219 259.933594 308.257812 C 257.960938 309.4375 255.957031 310.574219 253.929688 311.65625 C 251.898438 312.742188 249.84375 313.777344 247.761719 314.761719 C 245.683594 315.746094 243.578125 316.679688 241.453125 317.558594 C 239.328125 318.4375 237.179688 319.265625 235.011719 320.042969 C 232.847656 320.816406 230.660156 321.539062 228.460938 322.207031 C 226.257812 322.875 224.039062 323.488281 221.808594 324.046875 C 219.574219 324.609375 217.328125 325.113281 215.074219 325.5625 C 212.816406 326.011719 210.546875 326.402344 208.273438 326.742188 C 205.996094 327.078125 203.710938 327.359375 201.421875 327.585938 C 199.132812 327.8125 196.835938 327.980469 194.539062 328.09375 C 192.238281 328.207031 189.9375 328.261719 187.636719 328.261719 C 185.335938 328.261719 183.035156 328.207031 180.738281 328.09375 C 178.4375 327.980469 176.144531 327.8125 173.855469 327.585938 C 171.5625 327.359375 169.28125 327.078125 167.003906 326.742188 C 164.726562 326.402344 162.460938 326.011719 160.203125 325.5625 C 157.945312 325.113281 155.703125 324.609375 153.46875 324.046875 C 151.238281 323.488281 149.019531 322.875 146.816406 322.207031 C 144.613281 321.539062 142.429688 320.816406 140.261719 320.042969 C 138.097656 319.265625 135.949219 318.4375 133.824219 317.558594 C 131.695312 316.679688 129.59375 315.746094 127.511719 314.761719 C 125.433594 313.777344 123.378906 312.742188 121.347656 311.65625 C 119.316406 310.574219 117.316406 309.4375 115.34375 308.257812 C 113.367188 307.074219 111.425781 305.84375 109.511719 304.5625 C 107.597656 303.285156 105.714844 301.960938 103.867188 300.589844 C 102.019531 299.21875 100.207031 297.800781 98.425781 296.34375 C 96.648438 294.882812 94.90625 293.378906 93.199219 291.835938 C 91.496094 290.289062 89.828125 288.703125 88.199219 287.074219 C 86.574219 285.449219 84.988281 283.78125 83.441406 282.074219 C 81.894531 280.371094 80.394531 278.628906 78.933594 276.847656 C 77.472656 275.070312 76.058594 273.257812 74.6875 271.40625 C 73.316406 269.558594 71.992188 267.679688 70.710938 265.765625 C 69.433594 263.851562 68.203125 261.90625 67.019531 259.933594 C 65.835938 257.960938 64.703125 255.957031 63.617188 253.929688 C 62.53125 251.898438 61.5 249.84375 60.515625 247.761719 C 59.53125 245.683594 58.597656 243.578125 57.71875 241.453125 C 56.835938 239.328125 56.007812 237.179688 55.234375 235.011719 C 54.457031 232.847656 53.738281 230.660156 53.066406 228.460938 C 52.398438 226.257812 51.785156 224.039062 51.226562 221.808594 C 50.667969 219.574219 50.164062 217.328125 49.714844 215.074219 C 49.265625 212.816406 48.871094 210.546875 48.535156 208.273438 C 48.199219 205.996094 47.914062 203.710938 47.691406 201.421875 C 47.464844 199.132812 47.296875 196.835938 47.183594 194.539062 C 47.070312 192.238281 47.011719 189.9375 47.011719 187.636719 C 47.011719 185.335938 47.070312 183.035156 47.183594 180.738281 C 47.296875 178.4375 47.464844 176.144531 47.691406 173.855469 C 47.914062 171.5625 48.199219 169.28125 48.535156 167.003906 C 48.871094 164.726562 49.265625 162.460938 49.714844 160.203125 C 50.164062 157.945312 50.667969 155.703125 51.226562 153.46875 C 51.785156 151.238281 52.398438 149.019531 53.066406 146.816406 C 53.738281 144.613281 54.457031 142.429688 55.234375 140.261719 C 56.007812 138.097656 56.835938 135.949219 57.71875 133.824219 C 58.597656 131.695312 59.53125 129.59375 60.515625 127.511719 C 61.5 125.433594 62.53125 123.378906 63.617188 121.347656 C 64.703125 119.316406 65.835938 117.316406 67.019531 115.34375 C 68.203125 113.367188 69.433594 111.425781 70.710938 109.511719 C 71.992188 107.597656 73.316406 105.714844 74.6875 103.867188 C 76.058594 102.019531 77.472656 100.207031 78.933594 98.425781 C 80.394531 96.648438 81.894531 94.90625 83.441406 93.199219 C 84.988281 91.496094 86.574219 89.828125 88.199219 88.199219 C 89.828125 86.574219 91.496094 84.988281 93.199219 83.441406 C 94.90625 81.894531 96.648438 80.394531 98.425781 78.933594 C 100.207031 77.472656 102.019531 76.058594 103.867188 74.6875 C 105.714844 73.316406 107.597656 71.992188 109.511719 70.710938 C 111.425781 69.433594 113.367188 68.203125 115.34375 67.019531 C 117.316406 65.835938 119.316406 64.703125 121.347656 63.617188 C 123.378906 62.53125 125.433594 61.5 127.511719 60.515625 C 129.59375 59.53125 131.695312 58.597656 133.824219 57.71875 C 135.949219 56.835938 138.097656 56.007812 140.261719 55.234375 C 142.429688 54.457031 144.613281 53.738281 146.816406 53.066406 C 149.019531 52.398438 151.238281 51.785156 153.46875 51.226562 C 155.703125 50.667969 157.945312 50.164062 160.203125 49.714844 C 162.460938 49.265625 164.726562 48.871094 167.003906 48.535156 C 169.28125 48.199219 171.5625 47.914062 173.855469 47.691406 C 176.144531 47.464844 178.4375 47.296875 180.738281 47.183594 C 183.035156 47.070312 185.335938 47.011719 187.636719 47.011719 C 189.9375 47.011719 192.238281 47.070312 194.539062 47.183594 C 196.835938 47.296875 199.132812 47.464844 201.421875 47.691406 C 203.710938 47.914062 205.996094 48.199219 208.273438 48.535156 C 210.546875 48.871094 212.816406 49.265625 215.074219 49.714844 C 217.328125 50.164062 219.574219 50.667969 221.808594 51.226562 C 224.039062 51.785156 226.257812 52.398438 228.460938 53.066406 C 230.660156 53.738281 232.847656 54.457031 235.011719 55.234375 C 237.179688 56.007812 239.328125 56.835938 241.453125 57.71875 C 243.578125 58.597656 245.683594 59.53125 247.761719 60.515625 C 249.84375 61.5 251.898438 62.53125 253.929688 63.617188 C 255.957031 64.703125 257.960938 65.835938 259.933594 67.019531 C 261.90625 68.203125 263.851562 69.433594 265.765625 70.710938 C 267.679688 71.992188 269.558594 73.316406 271.40625 74.6875 C 273.257812 76.058594 275.070312 77.472656 276.847656 78.933594 C 278.628906 80.394531 280.371094 81.894531 282.074219 83.441406 C 283.78125 84.988281 285.449219 86.574219 287.074219 88.199219 C 288.703125 89.828125 290.289062 91.496094 291.835938 93.199219 C 293.378906 94.90625 294.882812 96.648438 296.34375 98.425781 C 297.800781 100.207031 299.21875 102.019531 300.589844 103.867188 C 301.960938 105.714844 303.285156 107.597656 304.5625 109.511719 C 305.84375 111.425781 307.074219 113.367188 308.257812 115.34375 C 309.4375 117.316406 310.574219 119.316406 311.65625 121.347656 C 312.742188 123.378906 313.777344 125.433594 314.761719 127.511719 C 315.746094 129.59375 316.679688 131.695312 317.558594 133.824219 C 318.4375 135.949219 319.265625 138.097656 320.042969 140.261719 C 320.816406 142.429688 321.539062 144.613281 322.207031 146.816406 C 322.875 149.019531 323.488281 151.238281 324.046875 153.46875 C 324.609375 155.703125 325.113281 157.945312 325.5625 160.203125 C 326.011719 162.460938 326.402344 164.726562 326.742188 167.003906 C 327.078125 169.28125 327.359375 171.5625 327.585938 173.855469 C 327.8125 176.144531 327.980469 178.4375 328.09375 180.738281 C 328.207031 183.035156 328.261719 185.335938 328.261719 187.636719 Z M 328.261719 187.636719 " fill-opacity="1" fill-rule="nonzero"/></g><path fill="#8a4b38" d="M 226.003906 178.925781 C 235.738281 175.742188 246.222656 181.085938 249.390625 190.839844 C 252.566406 200.59375 247.238281 211.082031 237.46875 214.257812 C 227.699219 217.433594 205.449219 215.921875 202.269531 206.167969 C 199.101562 196.398438 216.226562 182.085938 226.003906 178.925781 Z M 296.894531 173.367188 C 293.753906 177.109375 288.167969 177.605469 284.429688 174.453125 C 280.691406 171.300781 280.203125 165.726562 283.34375 161.976562 C 286.496094 158.246094 295.871094 153.234375 299.609375 156.378906 C 303.355469 159.53125 300.046875 169.621094 296.894531 173.367188 Z M 114.910156 115.464844 C 111.765625 119.203125 106.183594 119.699219 102.445312 116.546875 C 98.707031 113.394531 98.21875 107.828125 101.359375 104.074219 C 104.511719 100.34375 113.882812 95.332031 117.625 98.472656 C 121.371094 101.625 118.0625 111.71875 114.910156 115.464844 Z M 214.945312 99.796875 C 208.757812 95.84375 206.929688 87.621094 210.890625 81.433594 C 214.851562 75.238281 223.074219 73.425781 229.269531 77.378906 C 235.46875 81.34375 244.757812 94.335938 240.800781 100.523438 C 236.832031 106.730469 221.140625 103.769531 214.945312 99.796875 Z M 149.378906 151.222656 C 145.121094 142.40625 148.851562 131.777344 157.691406 127.535156 C 166.535156 123.289062 177.140625 127.027344 181.382812 135.871094 C 185.628906 144.722656 187.027344 166.007812 178.183594 170.234375 C 169.324219 174.484375 153.605469 160.082031 149.378906 151.222656 Z M 157.851562 267.851562 C 162.832031 260.621094 172.738281 258.785156 179.953125 263.78125 C 187.183594 268.785156 189.003906 278.679688 184.007812 285.910156 C 179.011719 293.140625 163.09375 303.671875 155.882812 298.683594 C 148.644531 293.6875 152.855469 275.074219 157.851562 267.851562 Z M 240.679688 264.492188 C 234.996094 260.886719 233.324219 253.34375 236.964844 247.667969 C 240.585938 242 248.125 240.339844 253.796875 243.96875 C 259.472656 247.59375 267.984375 259.503906 264.351562 265.164062 C 260.730469 270.855469 246.351562 268.132812 240.679688 264.492188 Z M 84.535156 191.113281 C 90.839844 184.054688 101.667969 183.453125 108.714844 189.765625 C 115.761719 196.082031 116.359375 206.894531 110.046875 213.933594 C 103.734375 221 85.296875 230.105469 78.257812 223.785156 C 71.191406 217.476562 78.214844 198.152344 84.535156 191.113281 Z M 84.535156 191.113281 " fill-opacity="1" fill-rule="nonzero"/></svg>