<svg xmlns="http://www.w3.org/2000/svg" xmlns:xlink="http://www.w3.org/1999/xlink" width="500" zoomAndPan="magnify" viewBox="0 0 375 149.999998" height="200" preserveAspectRatio="xMidYMid meet" version="1.0"><defs><g/><clipPath id="4d18303318"><path d="M 15 16.324219 L 132.300781 16.324219 L 132.300781 133.625 L 15 133.625 Z M 15 16.324219 " clip-rule="nonzero"/></clipPath></defs><g clip-path="url(#4d18303318)"><path fill="#d99e82" d="M 132.300781 74.972656 C 132.300781 76.894531 132.207031 78.8125 132.019531 80.722656 C 131.828125 82.632812 131.546875 84.53125 131.171875 86.414062 C 130.796875 88.300781 130.332031 90.160156 129.773438 92 C 129.21875 93.835938 128.570312 95.644531 127.835938 97.417969 C 127.101562 99.191406 126.28125 100.925781 125.375 102.621094 C 124.46875 104.316406 123.484375 105.960938 122.414062 107.558594 C 121.347656 109.15625 120.207031 110.695312 118.988281 112.179688 C 117.769531 113.664062 116.480469 115.085938 115.121094 116.445312 C 113.761719 117.804688 112.34375 119.09375 110.855469 120.3125 C 109.371094 121.53125 107.832031 122.671875 106.234375 123.738281 C 104.636719 124.808594 102.992188 125.792969 101.296875 126.699219 C 99.601562 127.605469 97.867188 128.425781 96.09375 129.160156 C 94.320312 129.894531 92.511719 130.539062 90.675781 131.097656 C 88.835938 131.65625 86.976562 132.121094 85.09375 132.496094 C 83.207031 132.871094 81.308594 133.152344 79.398438 133.339844 C 77.488281 133.53125 75.570312 133.625 73.648438 133.625 C 71.730469 133.625 69.8125 133.53125 67.902344 133.339844 C 65.988281 133.152344 64.09375 132.871094 62.207031 132.496094 C 60.324219 132.121094 58.464844 131.65625 56.625 131.097656 C 54.785156 130.539062 52.980469 129.894531 51.207031 129.160156 C 49.429688 128.425781 47.695312 127.605469 46.003906 126.699219 C 44.308594 125.792969 42.664062 124.808594 41.066406 123.738281 C 39.46875 122.671875 37.925781 121.53125 36.441406 120.3125 C 34.957031 119.09375 33.535156 117.804688 32.179688 116.445312 C 30.820312 115.085938 29.53125 113.664062 28.3125 112.179688 C 27.09375 110.695312 25.953125 109.15625 24.882812 107.558594 C 23.816406 105.960938 22.832031 104.316406 21.925781 102.621094 C 21.019531 100.925781 20.199219 99.191406 19.464844 97.417969 C 18.730469 95.644531 18.082031 93.835938 17.527344 92 C 16.96875 90.160156 16.5 88.300781 16.125 86.414062 C 15.753906 84.53125 15.46875 82.632812 15.28125 80.722656 C 15.09375 78.8125 15 76.894531 15 74.972656 C 15 73.054688 15.09375 71.136719 15.28125 69.226562 C 15.46875 67.3125 15.753906 65.414062 16.125 63.53125 C 16.5 61.648438 16.96875 59.785156 17.527344 57.949219 C 18.082031 56.109375 18.730469 54.304688 19.464844 52.53125 C 20.199219 50.753906 21.019531 49.019531 21.925781 47.328125 C 22.832031 45.632812 23.816406 43.988281 24.882812 42.390625 C 25.953125 40.792969 27.09375 39.25 28.3125 37.765625 C 29.53125 36.28125 30.820312 34.859375 32.179688 33.503906 C 33.535156 32.144531 34.957031 30.855469 36.441406 29.636719 C 37.925781 28.417969 39.46875 27.273438 41.066406 26.207031 C 42.664062 25.140625 44.308594 24.15625 46.003906 23.25 C 47.695312 22.34375 49.429688 21.523438 51.207031 20.789062 C 52.980469 20.054688 54.785156 19.40625 56.625 18.847656 C 58.464844 18.292969 60.324219 17.824219 62.207031 17.449219 C 64.09375 17.074219 65.988281 16.792969 67.902344 16.605469 C 69.8125 16.417969 71.730469 16.324219 73.648438 16.324219 C 75.570312 16.324219 77.488281 16.417969 79.398438 16.605469 C 81.308594 16.792969 83.207031 17.074219 85.09375 17.449219 C 86.976562 17.824219 88.835938 18.292969 90.675781 18.847656 C 92.511719 19.40625 94.320312 20.054688 96.09375 20.789062 C 97.867188 21.523438 99.601562 22.34375 101.296875 23.25 C 102.992188 24.15625 104.636719 25.140625 106.234375 26.207031 C 107.832031 27.273438 109.371094 28.417969 110.855469 29.636719 C 112.34375 30.855469 113.761719 32.144531 115.121094 33.503906 C 116.480469 34.859375 117.769531 36.28125 118.988281 37.765625 C 120.207031 39.25 121.347656 40.792969 122.414062 42.390625 C 123.484375 43.988281 124.46875 45.632812 125.375 47.328125 C 126.28125 49.019531 127.101562 50.753906 127.835938 52.53125 C 128.570312 54.304688 129.21875 56.109375 129.773438 57.949219 C 130.332031 59.785156 130.796875 61.648438 131.171875 63.53125 C 131.546875 65.414062 131.828125 67.3125 132.019531 69.226562 C 132.207031 71.136719 132.300781 73.054688 132.300781 74.972656 Z M 132.300781 74.972656 " fill-opacity="1" fill-rule="nonzero"/></g><path fill="#8a4b38" d="M 89.652344 71.339844 C 93.710938 70.011719 98.082031 72.242188 99.402344 76.308594 C 100.730469 80.375 98.507812 84.75 94.433594 86.074219 C 90.359375 87.402344 81.078125 86.769531 79.753906 82.703125 C 78.433594 78.628906 85.574219 72.660156 89.652344 71.339844 Z M 119.21875 69.023438 C 117.90625 70.582031 115.578125 70.789062 114.019531 69.472656 C 112.460938 68.160156 112.253906 65.835938 113.566406 64.273438 C 114.882812 62.714844 118.789062 60.625 120.347656 61.9375 C 121.910156 63.25 120.53125 67.460938 119.21875 69.023438 Z M 43.316406 44.871094 C 42.007812 46.433594 39.679688 46.640625 38.117188 45.324219 C 36.558594 44.011719 36.355469 41.6875 37.667969 40.121094 C 38.980469 38.566406 42.890625 36.476562 44.449219 37.785156 C 46.011719 39.101562 44.632812 43.308594 43.316406 44.871094 Z M 85.039062 38.339844 C 82.457031 36.6875 81.695312 33.261719 83.347656 30.679688 C 85 28.09375 88.429688 27.339844 91.015625 28.988281 C 93.597656 30.640625 97.472656 36.0625 95.824219 38.640625 C 94.167969 41.230469 87.621094 39.996094 85.039062 38.339844 Z M 57.695312 59.785156 C 55.917969 56.109375 57.472656 51.675781 61.160156 49.90625 C 64.847656 48.136719 69.273438 49.695312 71.042969 53.382812 C 72.8125 57.074219 73.394531 65.953125 69.707031 67.714844 C 66.011719 69.488281 59.457031 63.480469 57.695312 59.785156 Z M 61.226562 108.429688 C 63.304688 105.414062 67.4375 104.648438 70.445312 106.730469 C 73.460938 108.820312 74.21875 112.945312 72.136719 115.960938 C 70.050781 118.976562 63.414062 123.367188 60.40625 121.285156 C 57.386719 119.203125 59.144531 111.441406 61.226562 108.429688 Z M 95.769531 107.027344 C 93.402344 105.523438 92.703125 102.378906 94.222656 100.011719 C 95.734375 97.648438 98.875 96.953125 101.242188 98.46875 C 103.609375 99.980469 107.160156 104.949219 105.644531 107.308594 C 104.132812 109.679688 98.136719 108.546875 95.769531 107.027344 Z M 30.648438 76.421875 C 33.277344 73.480469 37.792969 73.226562 40.734375 75.859375 C 43.671875 78.496094 43.921875 83.003906 41.289062 85.941406 C 38.65625 88.886719 30.964844 92.6875 28.03125 90.050781 C 25.085938 87.417969 28.011719 79.359375 30.648438 76.421875 Z M 30.648438 76.421875 " fill-opacity="1" fill-rule="nonzero"/><g fill="#8a4b38" fill-opacity="1"><g transform="translate(151.767856, 66.374998)"><g><path d="M 3.234375 0 L 3.234375 -27.640625 L 13.109375 -27.640625 C 16.210938 -27.640625 18.925781 -27.066406 21.25 -25.921875 C 23.582031 -24.773438 25.390625 -23.15625 26.671875 -21.0625 C 27.953125 -18.96875 28.59375 -16.550781 28.59375 -13.8125 C 28.59375 -11.082031 27.953125 -8.671875 26.671875 -6.578125 C 25.390625 -4.484375 23.582031 -2.863281 21.25 -1.71875 C 18.925781 -0.570312 16.210938 0 13.109375 0 Z M 12.953125 -6.046875 C 15.609375 -6.046875 17.695312 -6.75 19.21875 -8.15625 C 20.75 -9.5625 21.515625 -11.445312 21.515625 -13.8125 C 21.515625 -16.1875 20.75 -18.078125 19.21875 -19.484375 C 17.695312 -20.890625 15.609375 -21.59375 12.953125 -21.59375 L 10.140625 -21.59375 L 10.140625 -6.046875 Z M 12.953125 -6.046875 "/></g></g></g><g fill="#8a4b38" fill-opacity="1"><g transform="translate(184.096515, 66.374998)"><g><path d="M 16.421875 0.515625 C 13.765625 0.515625 11.296875 -0.0820312 9.015625 -1.28125 C 6.742188 -2.476562 4.9375 -4.171875 3.59375 -6.359375 C 2.25 -8.546875 1.578125 -11.03125 1.578125 -13.8125 C 1.578125 -16.601562 2.25 -19.09375 3.59375 -21.28125 C 4.9375 -23.46875 6.742188 -25.160156 9.015625 -26.359375 C 11.296875 -27.554688 13.765625 -28.15625 16.421875 -28.15625 C 19.078125 -28.15625 21.546875 -27.554688 23.828125 -26.359375 C 26.109375 -25.160156 27.914062 -23.46875 29.25 -21.28125 C 30.59375 -19.09375 31.265625 -16.601562 31.265625 -13.8125 C 31.265625 -11.03125 30.59375 -8.546875 29.25 -6.359375 C 27.914062 -4.171875 26.109375 -2.476562 23.828125 -1.28125 C 21.546875 -0.0820312 19.078125 0.515625 16.421875 0.515625 Z M 16.421875 -5.796875 C 17.898438 -5.796875 19.238281 -6.140625 20.4375 -6.828125 C 21.632812 -7.515625 22.566406 -8.460938 23.234375 -9.671875 C 23.910156 -10.878906 24.25 -12.257812 24.25 -13.8125 C 24.25 -15.375 23.910156 -16.757812 23.234375 -17.96875 C 22.566406 -19.175781 21.632812 -20.117188 20.4375 -20.796875 C 19.238281 -21.484375 17.898438 -21.828125 16.421875 -21.828125 C 14.953125 -21.828125 13.617188 -21.484375 12.421875 -20.796875 C 11.222656 -20.117188 10.285156 -19.175781 9.609375 -17.96875 C 8.941406 -16.757812 8.609375 -15.375 8.609375 -13.8125 C 8.609375 -12.257812 8.941406 -10.878906 9.609375 -9.671875 C 10.285156 -8.460938 11.222656 -7.515625 12.421875 -6.828125 C 13.617188 -6.140625 14.953125 -5.796875 16.421875 -5.796875 Z M 16.421875 -5.796875 "/></g></g></g><g fill="#8a4b38" fill-opacity="1"><g transform="translate(219.109327, 66.374998)"><g><path d="M 22.65625 -10.984375 L 22.65625 -27.640625 L 29.296875 -27.640625 L 29.296875 0 L 24.484375 0 L 9.875 -16.578125 L 9.875 0 L 3.234375 0 L 3.234375 -27.640625 L 8.015625 -27.640625 Z M 22.65625 -10.984375 "/></g></g></g><g fill="#8a4b38" fill-opacity="1"><g transform="translate(151.767856, 111.224996)"><g><path d="M 15.75 -15.40625 L 30.875 -15.40625 L 30.875 -13.734375 C 30.875 -11.054688 30.273438 -8.628906 29.078125 -6.453125 C 27.878906 -4.285156 26.179688 -2.582031 23.984375 -1.34375 C 21.785156 -0.101562 19.226562 0.515625 16.3125 0.515625 C 13.675781 0.515625 11.234375 -0.078125 8.984375 -1.265625 C 6.734375 -2.453125 4.9375 -4.132812 3.59375 -6.3125 C 2.25 -8.5 1.578125 -11 1.578125 -13.8125 C 1.578125 -16.632812 2.25 -19.132812 3.59375 -21.3125 C 4.9375 -23.5 6.734375 -25.1875 8.984375 -26.375 C 11.234375 -27.5625 13.675781 -28.15625 16.3125 -28.15625 C 19.726562 -28.15625 22.722656 -27.269531 25.296875 -25.5 C 27.878906 -23.738281 29.660156 -21.289062 30.640625 -18.15625 L 23.296875 -18.15625 C 21.691406 -20.71875 19.390625 -22 16.390625 -22 C 14.890625 -22 13.546875 -21.632812 12.359375 -20.90625 C 11.171875 -20.1875 10.25 -19.195312 9.59375 -17.9375 C 8.9375 -16.6875 8.609375 -15.285156 8.609375 -13.734375 C 8.609375 -12.160156 8.9375 -10.753906 9.59375 -9.515625 C 10.25 -8.273438 11.175781 -7.300781 12.375 -6.59375 C 13.570312 -5.882812 14.945312 -5.53125 16.5 -5.53125 C 18.269531 -5.53125 19.78125 -5.921875 21.03125 -6.703125 C 22.28125 -7.492188 23.179688 -8.578125 23.734375 -9.953125 L 15.75 -9.953125 Z M 15.75 -15.40625 "/></g></g></g><g fill="#8a4b38" fill-opacity="1"><g transform="translate(186.346469, 111.224996)"><g><path d="M 28.546875 0 L 21.40625 0 L 19.5 -5.40625 L 9.15625 -5.40625 L 7.296875 0 L 0.28125 0 L 10.78125 -27.640625 L 18 -27.640625 Z M 10.984375 -11.171875 L 17.765625 -11.171875 L 14.375 -20.765625 Z M 10.984375 -11.171875 "/></g></g></g><g fill="#8a4b38" fill-opacity="1"><g transform="translate(217.29357, 111.224996)"><g><path d="M 20.40625 0 L 3.234375 0 L 3.234375 -27.640625 L 10.140625 -27.640625 L 10.140625 -6.234375 L 20.40625 -6.234375 Z M 20.40625 0 "/></g></g></g><g fill="#8a4b38" fill-opacity="1"><g transform="translate(240.819785, 111.224996)"><g><path d="M 20.40625 0 L 3.234375 0 L 3.234375 -27.640625 L 10.140625 -27.640625 L 10.140625 -6.234375 L 20.40625 -6.234375 Z M 20.40625 0 "/></g></g></g><g fill="#8a4b38" fill-opacity="1"><g transform="translate(264.345999, 111.224996)"><g><path d="M 10.140625 -11.25 L 10.140625 -5.890625 L 21.484375 -5.890625 L 21.484375 0 L 3.234375 0 L 3.234375 -27.640625 L 21.078125 -27.640625 L 21.078125 -21.75 L 10.140625 -21.75 L 10.140625 -16.984375 L 20.6875 -16.984375 L 20.6875 -11.25 Z M 10.140625 -11.25 "/></g></g></g><g fill="#8a4b38" fill-opacity="1"><g transform="translate(290.04321, 111.224996)"><g><path d="M 14.484375 0 L 7.578125 0 L 7.578125 -21.40625 L 0.796875 -21.40625 L 0.796875 -27.640625 L 21.203125 -27.640625 L 21.203125 -21.40625 L 14.484375 -21.40625 Z M 14.484375 0 "/></g></g></g><g fill="#8a4b38" fill-opacity="1"><g transform="translate(314.200973, 111.224996)"><g><path d="M 16.421875 0.515625 C 13.765625 0.515625 11.296875 -0.0820312 9.015625 -1.28125 C 6.742188 -2.476562 4.9375 -4.171875 3.59375 -6.359375 C 2.25 -8.546875 1.578125 -11.03125 1.578125 -13.8125 C 1.578125 -16.601562 2.25 -19.09375 3.59375 -21.28125 C 4.9375 -23.46875 6.742188 -25.160156 9.015625 -26.359375 C 11.296875 -27.554688 13.765625 -28.15625 16.421875 -28.15625 C 19.078125 -28.15625 21.546875 -27.554688 23.828125 -26.359375 C 26.109375 -25.160156 27.914062 -23.46875 29.25 -21.28125 C 30.59375 -19.09375 31.265625 -16.601562 31.265625 -13.8125 C 31.265625 -11.03125 30.59375 -8.546875 29.25 -6.359375 C 27.914062 -4.171875 26.109375 -2.476562 23.828125 -1.28125 C 21.546875 -0.0820312 19.078125 0.515625 16.421875 0.515625 Z M 16.421875 -5.796875 C 17.898438 -5.796875 19.238281 -6.140625 20.4375 -6.828125 C 21.632812 -7.515625 22.566406 -8.460938 23.234375 -9.671875 C 23.910156 -10.878906 24.25 -12.257812 24.25 -13.8125 C 24.25 -15.375 23.910156 -16.757812 23.234375 -17.96875 C 22.566406 -19.175781 21.632812 -20.117188 20.4375 -20.796875 C 19.238281 -21.484375 17.898438 -21.828125 16.421875 -21.828125 C 14.953125 -21.828125 13.617188 -21.484375 12.421875 -20.796875 C 11.222656 -20.117188 10.285156 -19.175781 9.609375 -17.96875 C 8.941406 -16.757812 8.609375 -15.375 8.609375 -13.8125 C 8.609375 -12.257812 8.941406 -10.878906 9.609375 -9.671875 C 10.285156 -8.460938 11.222656 -7.515625 12.421875 -6.828125 C 13.617188 -6.140625 14.953125 -5.796875 16.421875 -5.796875 Z M 16.421875 -5.796875 "/></g></g></g></svg>